HIERARCHY
ROOT Hips
{
	OFFSET 0.000000 0.000000 0.000000
	CHANNELS 6 Xposition Yposition Zposition Zrotation Yrotation Xrotation 
	JOINT LHipJoint
	{
		OFFSET 0.000000 0.000000 0.000000
		CHANNELS 3 Zrotation Yrotation Xrotation
		JOINT LeftUpLeg
		{
			OFFSET 1.363060 -1.794630 0.839290
			CHANNELS 3 Zrotation Yrotation Xrotation
			JOINT LeftLeg
			{
				OFFSET 2.448110 -6.726130 0.000000
				CHANNELS 3 Zrotation Yrotation Xrotation
				JOINT LeftFoot
				{
					OFFSET 2.562200 -7.039590 0.000000
					CHANNELS 3 Zrotation Yrotation Xrotation
					JOINT LeftToeBase
					{
						OFFSET 0.157640 -0.433110 2.322550
						CHANNELS 3 Zrotation Yrotation Xrotation
						End Site
						{
							OFFSET 0.000000 0.000000 0.000000
						}
					}
				}
			}
		}
	}
	JOINT RHipJoint
	{
		OFFSET 0.000000 0.000000 0.000000
		CHANNELS 3 Zrotation Yrotation Xrotation
		JOINT RightUpLeg
		{
			OFFSET -1.305520 -1.794630 0.839290
			CHANNELS 3 Zrotation Yrotation Xrotation
			JOINT RightLeg
			{
				OFFSET -2.542530 -6.985550 0.000000
				CHANNELS 3 Zrotation Yrotation Xrotation
				JOINT RightFoot
				{
					OFFSET -2.568260 -7.056230 0.000000
					CHANNELS 3 Zrotation Yrotation Xrotation
					JOINT RightToeBase
					{
						OFFSET -0.164730 -0.452590 2.363150
						CHANNELS 3 Zrotation Yrotation Xrotation
						End Site
						{
							OFFSET 0.000000 0.000000 0.000000
						}
					}
				}
			}
		}
	}
	JOINT LowerBack
	{
		OFFSET 0.000000 0.000000 0.000000
		CHANNELS 3 Zrotation Yrotation Xrotation
		JOINT Spine
		{
			OFFSET 0.028270 2.035590 -0.193380
			CHANNELS 3 Zrotation Yrotation Xrotation
			JOINT Spine1
			{
				OFFSET 0.056720 2.048850 -0.042750
				CHANNELS 3 Zrotation Yrotation Xrotation
				JOINT Neck
				{
					OFFSET 0.000000 0.000000 0.000000
					CHANNELS 3 Zrotation Yrotation Xrotation
					JOINT Neck1
					{
						OFFSET -0.054170 1.746240 0.172020
						CHANNELS 3 Zrotation Yrotation Xrotation
						JOINT Head
						{
							OFFSET 0.104070 1.761360 -0.123970
							CHANNELS 3 Zrotation Yrotation Xrotation
							End Site
							{
								OFFSET 0.000000 0.000000 0.000000
							}
						}
					}
				}
				JOINT LeftShoulder
				{
					OFFSET 0.000000 0.000000 0.000000
					CHANNELS 3 Zrotation Yrotation Xrotation
					JOINT LeftArm
					{
						OFFSET 3.362410 1.200890 -0.311210
						CHANNELS 3 Zrotation Yrotation Xrotation
						JOINT LeftForeArm
						{
							OFFSET 4.983000 -0.000000 -0.000000
							CHANNELS 3 Zrotation Yrotation Xrotation
							JOINT LeftHand
							{
								OFFSET 3.483560 -0.000000 -0.000000
								CHANNELS 3 Zrotation Yrotation Xrotation
								JOINT LeftFingerBase
								{
									OFFSET 0.000000 0.000000 0.000000
									CHANNELS 3 Zrotation Yrotation Xrotation
									JOINT LeftHandIndex1
									{
										OFFSET 0.715260 -0.000000 -0.000000
										CHANNELS 3 Zrotation Yrotation Xrotation
										End Site
										{
											OFFSET 0.000000 0.000000 0.000000
										}
									}
								}
								JOINT LThumb
								{
									OFFSET 0.000000 0.000000 0.000000
									CHANNELS 3 Zrotation Yrotation Xrotation
									End Site
									{
										OFFSET 0.000000 0.000000 0.000000
									}
								}
							}
						}
					}
				}
				JOINT RightShoulder
				{
					OFFSET 0.000000 0.000000 0.000000
					CHANNELS 3 Zrotation Yrotation Xrotation
					JOINT RightArm
					{
						OFFSET -3.136600 1.374050 -0.404650
						CHANNELS 3 Zrotation Yrotation Xrotation
						JOINT RightForeArm
						{
							OFFSET -5.241900 -0.000000 -0.000000
							CHANNELS 3 Zrotation Yrotation Xrotation
							JOINT RightHand
							{
								OFFSET -3.444170 -0.000000 -0.000000
								CHANNELS 3 Zrotation Yrotation Xrotation
								JOINT RightFingerBase
								{
									OFFSET 0.000000 0.000000 0.000000
									CHANNELS 3 Zrotation Yrotation Xrotation
									JOINT RightHandIndex1
									{
										OFFSET -0.622530 -0.000000 -0.000000
										CHANNELS 3 Zrotation Yrotation Xrotation
										End Site
										{
											OFFSET 0.000000 0.000000 0.000000
										}
									}
								}
								JOINT RThumb
								{
									OFFSET 0.000000 0.000000 0.000000
									CHANNELS 3 Zrotation Yrotation Xrotation
									End Site
									{
										OFFSET 0.000000 0.000000 0.000000
									}
								}
							}
						}
					}
				}
			}
		}
	}
}
MOTION
Frames: 5
Frame Time: 0.008333
-2.110699 16.561875 0.107721 -143.401281 82.645310 -142.907072 -9.606388 1.181646 -0.038446 -22.638499 15.299140 -31.312951 -2.217067 0.145507 24.590301 3.377129 16.271589 -16.161597 177.595800 -0.000000 -12.251900 11.281654 -4.364134 -2.393913 -5.602156 -22.187678 -2.483303 -0.417803 -3.418624 49.603030 -1.124200 7.791260 30.280081 5.255200 0.000000 -87.737600 -3.118457 3.362724 0.403561 -1.169961 3.544549 -3.350814 -4.144218 3.476533 -1.674858 2.961819 -2.496880 -7.533415 -0.664365 -0.055902 0.060889 0.000000 0.000000 0.000000 -3.989289 20.902575 2.048788 -57.310148 41.896558 11.825804 -3.112732 -50.746458 -0.027432 -4.093227 9.306813 -0.330342 -0.104203 -0.148988 -0.000000 0.000000 0.000000 0.000000 0.000000 0.000000 0.000000 -3.895199 5.536449 -1.156143 36.187721 44.258003 13.161441 -0.101325 70.580588 -0.030418 -2.735919 6.393245 -0.160928 -0.063055 -0.492180 -0.000000 0.000000 0.000000 0.000000 0.000000 0.000000 0.000000 
-1.967581 16.475762 0.072468 -147.096591 82.621154 -146.703297 -9.562131 1.243696 -0.193656 -23.185987 15.478510 -32.026855 -2.239824 0.379649 27.434458 3.340938 15.711192 -17.522250 177.209800 -0.000000 -13.515200 11.420141 -4.145949 -2.455348 -6.425499 -22.286267 -4.049479 -0.612596 -3.562528 53.224657 -1.441672 4.734139 31.029759 3.632000 -0.000000 -82.940600 -3.564016 3.107356 0.629282 -1.279361 3.317633 -3.330824 -4.287460 3.252304 -1.724690 3.371668 -2.112948 -7.643389 -0.830308 -0.066076 0.019168 0.000000 0.000000 0.000000 -4.650253 20.863334 2.195484 -58.053294 40.307634 10.684519 -3.091391 -50.405275 -0.025390 -3.737027 9.138702 -0.295426 -0.101794 -0.142475 -0.000000 0.000000 0.000000 0.000000 0.000000 0.000000 0.000000 -2.924800 6.008265 -1.050623 37.751848 43.940017 13.524835 -0.058685 70.298628 -0.028647 -2.516789 6.561010 -0.151360 -0.062957 -0.493725 -0.000000 0.000000 0.000000 0.000000 0.000000 0.000000 0.000000 
-1.830973 16.389595 0.036568 -150.995973 82.536500 -150.658688 -9.545886 1.291155 -0.343220 -23.708417 15.526073 -32.708674 -2.248929 0.610654 30.220607 3.326021 15.254054 -18.928355 176.824600 0.000000 -14.425300 11.520570 -3.923784 -2.514527 -7.114363 -22.203417 -5.674776 -0.797030 -3.733793 56.815059 -1.724390 1.696669 31.138522 1.916500 0.000000 -77.847600 -4.000267 2.838368 0.872027 -1.388797 3.076544 -3.305409 -4.443781 3.014289 -1.770712 3.797361 -1.726194 -7.765771 -1.019827 -0.077767 -0.028304 0.000000 0.000000 0.000000 -5.368313 20.827638 2.352979 -58.659766 38.365464 9.755778 -3.071075 -49.829458 -0.022955 -3.183374 8.952283 -0.245303 -0.099803 -0.135191 -0.000000 0.000000 0.000000 0.000000 0.000000 0.000000 0.000000 -1.847508 6.499736 -0.936546 39.317559 43.565578 13.775534 -0.015517 70.005582 -0.027020 -2.298088 6.798298 -0.142492 -0.063108 -0.496545 -0.000000 0.000000 0.000000 0.000000 0.000000 0.000000 0.000000 
-1.700769 16.305228 -0.000511 -154.875639 82.390502 -154.547584 -9.552136 1.328488 -0.484891 -24.195729 15.434742 -33.311015 -2.246686 0.833084 32.858946 3.339191 14.945241 -20.351015 176.434101 0.000000 -15.091500 11.590931 -3.702456 -2.568989 -7.657427 -21.922474 -7.357508 -0.987237 -3.929078 60.331833 -1.957699 -1.052727 30.635193 0.341500 -0.000001 -72.976500 -4.411292 2.572298 1.126909 -1.496152 2.836578 -3.277151 -4.614786 2.777602 -1.818578 4.236444 -1.348104 -7.889334 -1.231185 -0.091034 -0.078324 0.000000 0.000000 0.000000 -6.142211 20.759209 2.512685 -59.102976 36.093278 9.061801 -3.052660 -49.028189 -0.020216 -2.450589 8.752062 -0.182775 -0.097861 -0.127126 -0.000000 0.000000 0.000000 0.000000 0.000000 0.000000 0.000000 -0.673653 7.000919 -0.812700 40.895909 43.084942 13.898407 0.029104 69.701727 -0.025801 -2.124590 7.108333 -0.137118 -0.062598 -0.500719 -0.000000 0.000000 0.000000 0.000000 0.000000 0.000000 0.000000 
-1.576619 16.224421 -0.039067 -158.537944 82.180926 -158.170639 -9.570752 1.359752 -0.617324 -24.643654 15.206688 -33.798993 -2.235722 1.041979 35.277309 3.382545 14.805127 -21.753760 176.034100 0.000001 -15.499699 11.643909 -3.485563 -2.613972 -8.047713 -21.432968 -9.097010 -1.194165 -4.140856 63.733073 -2.132164 -3.318429 29.599926 -0.921100 0.000000 -68.678900 -4.784092 2.323118 1.385852 -1.599482 2.610673 -3.246599 -4.800825 2.555074 -1.862952 4.689828 -1.003388 -8.011566 -1.461398 -0.105686 -0.130160 0.000000 0.000000 0.000000 -6.931400 20.652934 2.670358 -59.390341 33.468027 8.627604 -3.038884 -47.974905 -0.017288 -1.571182 8.540138 -0.111744 -0.095591 -0.118076 -0.000000 0.000000 0.000000 0.000000 0.000000 0.000000 0.000000 0.590308 7.483171 -0.682001 42.482659 42.472527 13.893876 0.074972 69.372382 -0.025373 -2.058851 7.495046 -0.139638 -0.060311 -0.506208 -0.000000 0.000000 0.000000 0.000000 0.000000 0.000000 0.000000 
